# xmcd
#
# Track frame offsets: 
#        150
#        15795
#        30480
#        40000
#        69094
#        80981
#        98326
#        115949
#        131917
#        144909
#        165922
#        188228
#        234236
#        254154
#        263136
#
# Disc length: 3736 seconds
#
# Revision: 0
# Processed by: cddbd v1.5.2PL0 Copyright (c) Steve Scherf et al.
# Submitted via: ExactAudioCopy v0.95b3
#
DISCID=b60e960f
DTITLE=Flo and Eddie  - History of Flo and Eddie - Disc 1  FLAC
DYEAR=1900
DGENRE=
TTITLE0=Westchester high School Alma Mater
TTITLE1=Silver Bullet
TTITLE2=I Get Out of Breath
TTITLE3=Outside Chance
TTITLE4=Grim Reaper of Love
TTITLE5=Lady-O
TTITLE6=Goodbye Surprise
TTITLE7=Turtle Hits Medley
TTITLE8=Happy Together
TTITLE9=There You Sit Lonely
TTITLE10=We Ain't Gonna Party No More
TTITLE11=The Flo and Eddie Theme
TTITLE12=Feel Older Now
TTITLE13=Nikki Hoi
TTITLE14=I've Been Born Again
EXTD=
EXTT0=
EXTT1=
EXTT2=
EXTT3=
EXTT4=
EXTT5=
EXTT6=
EXTT7=
EXTT8=
EXTT9=
EXTT10=
EXTT11=
EXTT12=
EXTT13=
EXTT14=
PLAYORDER=
